<svg width="44" height="44" viewBox="0 0 44 44" fill="none" xmlns="http://www.w3.org/2000/svg">
<rect width="44" height="44" fill="#395896"/>
<path d="M19.3131 23.4561C19.2291 23.4561 17.3811 23.4561 16.5411 23.4561C16.0931 23.4561 15.9531 23.2881 15.9531 22.8681C15.9531 21.7481 15.9531 20.6001 15.9531 19.4801C15.9531 19.0321 16.1211 18.8921 16.5411 18.8921H19.3131C19.3131 18.8081 19.3131 17.1841 19.3131 16.4281C19.3131 15.3081 19.5091 14.2441 20.0691 13.2641C20.6571 12.2561 21.4971 11.5841 22.5611 11.1921C23.2611 10.9401 23.9611 10.8281 24.7171 10.8281H27.4611C27.8531 10.8281 28.0211 10.9961 28.0211 11.3881V14.5801C28.0211 14.9721 27.8531 15.1401 27.4611 15.1401C26.7051 15.1401 25.9491 15.1401 25.1931 15.1681C24.4371 15.1681 24.0451 15.5321 24.0451 16.3161C24.0171 17.1561 24.0451 17.9681 24.0451 18.8361H27.2931C27.7411 18.8361 27.9091 19.0041 27.9091 19.4521V22.8401C27.9091 23.2881 27.7691 23.4281 27.2931 23.4281C26.2851 23.4281 24.1291 23.4281 24.0451 23.4281V32.5561C24.0451 33.0321 23.9051 33.2001 23.4011 33.2001C22.2251 33.2001 21.0771 33.2001 19.9011 33.2001C19.4811 33.2001 19.3131 33.0321 19.3131 32.6121C19.3131 29.6721 19.3131 23.5401 19.3131 23.4561Z" fill="white"/>
</svg>
