<svg width="15" height="15" viewBox="0 0 15 15" fill="none" xmlns="http://www.w3.org/2000/svg">
<g clip-path="url(#clip0_154_6209)">
<path d="M14.7259 8.46665L13.6252 2.2244C13.4756 1.37629 12.6638 0.807915 11.8158 0.957484L2.37566 2.62208C1.52751 2.77162 0.959167 3.58327 1.10871 4.43139L1.18958 4.89012C0.637226 5.13107 0.25 5.68218 0.25 6.32231V12.5049C0.25 13.3661 0.950648 14.0668 1.81185 14.0668H11.183C12.0442 14.0668 12.7448 13.3661 12.7448 12.5049V10.4019L13.4589 10.276C13.8698 10.2035 14.2278 9.97543 14.4671 9.63367C14.7064 9.29194 14.7983 8.87745 14.7259 8.46665ZM13.7693 9.14504C13.6605 9.30037 13.4977 9.40405 13.311 9.43699L12.7448 9.53681V9.05127V7.11883V6.32228C12.7448 5.46108 12.0442 4.76043 11.183 4.76043H2.03182L1.94771 4.28344C1.91477 4.0967 1.95657 3.90831 2.06533 3.75295C2.17409 3.59761 2.33686 3.49394 2.52361 3.46099L11.9638 1.79643C12.0053 1.7891 12.0466 1.78558 12.0874 1.78558C12.4253 1.78558 12.7256 2.02832 12.7862 2.3723L13.8869 8.61455C13.9198 8.80132 13.878 8.9897 13.7693 9.14504ZM11.183 13.2149H1.81185C1.4204 13.2149 1.10192 12.8964 1.10192 12.5049V9.47723H11.8929V12.5049C11.8929 12.8964 11.5744 13.2149 11.183 13.2149ZM1.81185 5.61238H11.183C11.5744 5.61238 11.8929 5.93085 11.8929 6.32231V6.6929H1.10192V6.32231C1.10192 5.93085 1.4204 5.61238 1.81185 5.61238ZM11.8929 7.54482V8.62534H1.10192V7.54482H11.8929Z" fill="#DD515B"/>
<path d="M4.34961 11.5039H2.41717C2.18193 11.5039 1.99121 11.6946 1.99121 11.9299C1.99121 12.1651 2.18193 12.3558 2.41717 12.3558H4.34961C4.58485 12.3558 4.77557 12.1651 4.77557 11.9299C4.77557 11.6946 4.58485 11.5039 4.34961 11.5039Z" fill="#DD515B"/>
</g>
<defs>
<clipPath id="clip0_154_6209">
<rect width="14.5" height="14.5" fill="white" transform="translate(0.25 0.25)"/>
</clipPath>
</defs>
</svg>
